# xmcd
#
# Track frame offsets:
#	150
#	21623
#	34595
#	49603
#	63285
#	77731
#	92152
#	106544
#	122405
#	138830
#	153386
#	167928
#	182203
#	197252
#	211297
#	227481
#
# Disc length: 3283 seconds
#
# Revision: 1
# Processed by: cddbd v1.5.2PL0 Copyright (c) Steve Scherf et al.
# Submitted via: audiograbber 1.83.01
#
DISCID=c60cd110
DTITLE=Αδαμαντίδης Θέμης - Απόλυτος έρωτας
DYEAR=1996
DGENRE=Other
TTITLE0=Απόλυτος έρωτας
TTITLE1=Δεν με χρειάζεσαι
TTITLE2=Η αγάπη σου γυαλί
TTITLE3=Κόκκινα φώτα
TTITLE4=Γλέντι στήνω
TTITLE5=Που πηγαίνεις
TTITLE6=Ολα σου φωνάζουν γύρισε
TTITLE7=Ετσι είμαι εγώ
TTITLE8=Αεροπειρατεία
TTITLE9=Οταν έρθει η ώρα μου
TTITLE10=Δεν μου φτάνει μια ζωή
TTITLE11=Φεύγω
TTITLE12=Ο Στέλιος
TTITLE13=Αλλη μοναξιά
TTITLE14=Καίνε οι αγάπες
TTITLE15=Με ταξιδεύεις
EXTD=
EXTT0=
EXTT1=
EXTT2=
EXTT3=
EXTT4=
EXTT5=
EXTT6=
EXTT7=
EXTT8=
EXTT9=
EXTT10=
EXTT11=
EXTT12=
EXTT13=
EXTT14=
EXTT15=
PLAYORDER=
